<?xml version="1.0" encoding="UTF-8" standalone="no"?>
<!-- Created with Inkscape (http://www.inkscape.org/) -->

<svg
   xmlns:dc="http://purl.org/dc/elements/1.1/"
   xmlns:cc="http://creativecommons.org/ns#"
   xmlns:rdf="http://www.w3.org/1999/02/22-rdf-syntax-ns#"
   xmlns:svg="http://www.w3.org/2000/svg"
   xmlns="http://www.w3.org/2000/svg"
   xmlns:sodipodi="http://sodipodi.sourceforge.net/DTD/sodipodi-0.dtd"
   xmlns:inkscape="http://www.inkscape.org/namespaces/inkscape"
   width="43"
   height="58"
   id="svg3968"
   version="1.1"
   inkscape:version="0.48.3.1 r9886"
   sodipodi:docname="logo.svg">
  <defs
     id="defs3970" />
  <sodipodi:namedview
     id="base"
     pagecolor="#ffffff"
     bordercolor="#666666"
     borderopacity="1.0"
     inkscape:pageopacity="0.0"
     inkscape:pageshadow="2"
     inkscape:zoom="3.959798"
     inkscape:cx="45.256075"
     inkscape:cy="16.599672"
     inkscape:document-units="px"
     inkscape:current-layer="layer1"
     showgrid="false"
     fit-margin-top="0"
     fit-margin-left="0"
     fit-margin-right="0"
     fit-margin-bottom="0"
     inkscape:window-width="1920"
     inkscape:window-height="1029"
     inkscape:window-x="0"
     inkscape:window-y="26"
     inkscape:window-maximized="1" />
  <metadata
     id="metadata3973">
    <rdf:RDF>
      <cc:Work
         rdf:about="">
        <dc:format>image/svg+xml</dc:format>
        <dc:type
           rdf:resource="http://purl.org/dc/dcmitype/StillImage" />
        <dc:title />
      </cc:Work>
    </rdf:RDF>
  </metadata>
  <g
     inkscape:label="Ebene 1"
     inkscape:groupmode="layer"
     id="layer1"
     transform="translate(-309.92859,-280.50501)">
    <g
       transform="translate(-569.0634,-118.85717)"
       id="g3161"
       inkscape:export-filename="/media/Daten/projekte/tb_logo.png"
       inkscape:export-xdpi="783.25665"
       inkscape:export-ydpi="783.25665"
       style="fill:#333333">
      <g
         transform="translate(258.99199,82)"
         id="g3155"
         style="fill:#333333;fill-opacity:1">
        <path
           sodipodi:nodetypes="ccccccccccc"
           inkscape:connector-curvature="0"
           style="fill:#333333;fill-opacity:1;stroke:none"
           d="m 620,317.36218 0,38 c 0,11.04569 8.95431,20 20,20 l 0,-10 c -5.52285,0 -10,-4.47715 -10,-10 l 0,-13 10,0 0,-10 -10,0 0,-15 z"
           id="path3157" />
        <path
           inkscape:connector-curvature="0"
           style="fill:#333333;fill-opacity:1;stroke:none"
           d="m 643,332.36218 0,10 c 5.52285,0 10,4.47715 10,10 l 0,3 c 0,5.52285 -4.47715,10 -10,10 l 0,10 c 11.04569,0 20,-8.95431 20,-20 l 0,-3 c 0,-11.04569 -8.95431,-20 -20,-20 z"
           id="path3159" />
      </g>
    </g>
  </g>
</svg>
